<?xml version="1.0" encoding="UTF-8"?>
<svg width="117.7mm" height="129.02mm" version="1.1" viewBox="0 0 117.7 129.02" xmlns="http://www.w3.org/2000/svg"><g transform="translate(7.7656 -223.48)"><rect x="-.99571" y="233.5" width="12.567" height="25.134" fill="none" stroke="#000" stroke-linecap="round" stroke-linejoin="round" stroke-width=".21545" style="paint-order:stroke fill markers"/><g fill="#2e44cf" stroke="#2e44cf" stroke-linecap="round" stroke-linejoin="round" stroke-width=".21545"><circle cx="2.8874" cy="239.74" r="2.4584" style="paint-order:stroke fill markers"/><circle cx="8.4187" cy="245.58" r="2.4584" style="paint-order:stroke fill markers"/><circle cx="2.8874" cy="254.03" r="2.4584" style="paint-order:stroke fill markers"/></g><rect x="15.873" y="233.5" width="12.567" height="25.134" fill="none" stroke="#000" stroke-linecap="round" stroke-linejoin="round" stroke-width=".21545" style="paint-order:stroke fill markers"/><g fill="#2e44cf" stroke="#2e44cf" stroke-linecap="round" stroke-linejoin="round" stroke-width=".21545"><circle cx="19.756" cy="239.74" r="2.4584" style="paint-order:stroke fill markers"/><circle cx="25.288" cy="245.58" r="2.4584" style="paint-order:stroke fill markers"/><circle cx="19.756" cy="254.03" r="2.4584" style="paint-order:stroke fill markers"/></g><rect x="32.742" y="233.5" width="12.567" height="25.134" fill="none" stroke="#000" stroke-linecap="round" stroke-linejoin="round" stroke-width=".21545" style="paint-order:stroke fill markers"/><g fill="#2e44cf" stroke="#2e44cf" stroke-linecap="round" stroke-linejoin="round" stroke-width=".21545"><circle cx="36.625" cy="239.74" r="2.4584" style="paint-order:stroke fill markers"/><circle cx="42.157" cy="245.58" r="2.4584" style="paint-order:stroke fill markers"/><circle cx="36.625" cy="254.03" r="2.4584" style="paint-order:stroke fill markers"/></g><rect x="49.611" y="233.5" width="12.567" height="25.134" fill="none" stroke="#000" stroke-linecap="round" stroke-linejoin="round" stroke-width=".21545" style="paint-order:stroke fill markers"/><g fill="#2e44cf" stroke="#2e44cf" stroke-linecap="round" stroke-linejoin="round" stroke-width=".21545"><circle cx="53.494" cy="239.74" r="2.4584" style="paint-order:stroke fill markers"/><circle cx="59.026" cy="245.58" r="2.4584" style="paint-order:stroke fill markers"/><circle cx="53.494" cy="254.03" r="2.4584" style="paint-order:stroke fill markers"/></g><rect x="66.48" y="233.5" width="12.567" height="25.134" fill="none" stroke="#000" stroke-linecap="round" stroke-linejoin="round" stroke-width=".21545" style="paint-order:stroke fill markers"/><g fill="#2e44cf" stroke="#2e44cf" stroke-linecap="round" stroke-linejoin="round" stroke-width=".21545"><circle cx="70.363" cy="239.74" r="2.4584" style="paint-order:stroke fill markers"/><circle cx="75.895" cy="245.58" r="2.4584" style="paint-order:stroke fill markers"/><circle cx="70.363" cy="254.03" r="2.4584" style="paint-order:stroke fill markers"/></g><rect x="92.724" y="274.77" width="5.165" height="10.33" fill="none" stroke="#000" stroke-linecap="round" stroke-linejoin="round" stroke-width=".21545" style="paint-order:stroke fill markers"/><text transform="scale(.93822 1.0659)" x="106.89413" y="263.67786" fill="#000000" font-family="'Times New Roman'" font-size="3.4993px" font-style="italic" letter-spacing="0px" stroke-width=".26245" word-spacing="0px" style="line-height:1.25" xml:space="preserve"><tspan x="106.89413" y="263.67786" font-family="'Times New Roman'" font-size="3.4993px" font-style="normal" font-weight="bold" stroke-width=".26245" style="font-feature-settings:normal;font-variant-caps:normal;font-variant-ligatures:normal;font-variant-numeric:normal">Group</tspan></text><circle cx="95.182" cy="291.67" r="2.4584" fill="#2e44cf" stroke="#2e44cf" stroke-linecap="round" stroke-linejoin="round" stroke-width=".21545" style="paint-order:stroke fill markers"/><g fill="#000000" font-family="'Times New Roman'" font-style="italic" letter-spacing="0px" word-spacing="0px"><text transform="scale(.93822 1.0659)" x="106.89386" y="274.60907" font-size="3.4993px" stroke-width=".26245" style="line-height:1.25" xml:space="preserve"><tspan x="106.89386" y="274.60907" font-family="'Times New Roman'" font-size="3.4993px" font-style="normal" font-weight="bold" stroke-width=".26245" style="font-feature-settings:normal;font-variant-caps:normal;font-variant-ligatures:normal;font-variant-numeric:normal">Object</tspan></text><text x="18.486092" y="230.72182" font-size="4.9263px" stroke-width=".36948" style="line-height:1.25" xml:space="preserve"><tspan x="18.486092" y="230.72182" stroke-width=".36948">5 groups of 3 objects</tspan></text><text x="18.485935" y="273.03186" font-size="4.9263px" stroke-width=".36948" style="line-height:1.25" xml:space="preserve"><tspan x="18.485935" y="273.03186" stroke-width=".36948">5 groups of 0 objects</tspan></text></g><g fill="none" stroke="#000" stroke-linecap="round" stroke-linejoin="round" stroke-width=".21545"><rect x="-.99565" y="276.65" width="12.567" height="25.134" style="paint-order:stroke fill markers"/><rect x="15.873" y="276.65" width="12.567" height="25.134" style="paint-order:stroke fill markers"/><rect x="32.742" y="276.65" width="12.567" height="25.134" style="paint-order:stroke fill markers"/><rect x="49.611" y="276.65" width="12.567" height="25.134" style="paint-order:stroke fill markers"/><rect x="66.48" y="276.65" width="12.567" height="25.134" style="paint-order:stroke fill markers"/></g><text x="18.485935" y="316.54767" fill="#000000" font-family="'Times New Roman'" font-size="4.9263px" font-style="italic" letter-spacing="0px" stroke-width=".36948" word-spacing="0px" style="line-height:1.25" xml:space="preserve"><tspan x="18.485935" y="316.54767" stroke-width=".36948">0 groups of 3 objects</tspan></text><path d="m-7.5656 261.66z" fill="none" stroke="#000" stroke-width=".21511px"/><g transform="matrix(.813 0 0 .813 -1.4147 65.73)" fill="none" stroke="#000" stroke-width=".26458px"><path d="m-4.9308 194.42v49.704"/><path d="m104.68 194.42v49.704"/><path d="m-4.9308 194.42 109.61 2.9e-4"/><path d="m-4.9308 244.12 109.61 2.7e-4"/></g><g transform="matrix(.813 0 0 .813 -119.72 118.43)" fill="none" stroke="#000" stroke-width=".26458px"><path d="m140.59 183.55v49.704"/><path d="m250.2 183.55v49.704"/><path d="m140.59 183.55 109.61 2.9e-4"/><path d="m140.59 233.25 109.61 2.7e-4"/></g><g transform="matrix(.813 0 0 .813 -119.72 162.56)" fill="none" stroke="#000" stroke-width=".26458px"><path d="m140.59 183.55v49.704"/><path d="m250.2 183.55v49.704"/><path d="m140.59 183.55 109.61 2.9e-4"/><path d="m140.59 233.25 109.61 2.7e-4"/></g></g></svg>
